<svg width="39" height="42" viewBox="0 0 39 42" fill="none" xmlns="http://www.w3.org/2000/svg">
<path d="M24.8455 23.1614L29.9417 27.9566L21.1162 37.133C20.586 37.6842 19.707 37.7078 19.1464 37.1858L15.0575 33.3785L24.8455 23.1614Z" fill="white"/>
<path d="M15.0757 33.4044C15.0757 33.4044 18.7816 30.0309 18.7296 27.1615C18.6776 24.292 17.5177 22.6926 15.6622 20.8927C13.5306 18.825 8.94708 14.3788 8.94708 14.3788L3.33689 20.0809C2.79697 20.6297 2.80794 21.5096 3.36139 22.0463L15.0757 33.4044Z" fill="white"/>
<path d="M14.2505 18.9741L9.15426 14.1789L17.9008 5.03846C18.4305 4.48493 19.3113 4.46022 19.8729 4.98314L23.9593 8.78801L14.2505 18.9741Z" fill="white"/>
<path d="M23.9409 8.76373C23.9409 8.76373 20.235 12.1372 20.287 15.0067C20.339 17.8761 21.4989 19.4756 23.3544 21.2755C25.486 23.3432 30.2133 27.7418 30.2133 27.7418L35.6944 22.087C36.2274 21.5372 36.2132 20.6629 35.6627 20.1291L23.9409 8.76373Z" fill="white"/>
</svg>
